<?xml version="1.0" encoding="utf-8"?>
<!-- Generator: Adobe Illustrator 17.0.2, SVG Export Plug-In . SVG Version: 6.00 Build 0)  -->
<!DOCTYPE svg PUBLIC "-//W3C//DTD SVG 1.1//EN" "http://www.w3.org/Graphics/SVG/1.1/DTD/svg11.dtd">
<svg version="1.1" id="Layer_1" xmlns="http://www.w3.org/2000/svg" xmlns:xlink="http://www.w3.org/1999/xlink" x="0px" y="0px"
	 width="567.929px" height="567.929px" viewBox="0 0 567.929 567.929" enable-background="new 0 0 567.929 567.929"
	 xml:space="preserve">
<path fill="none" stroke="#32cd32" stroke-width="40" stroke-linecap="round" stroke-miterlimit="10" d="M118.852,386.012
	c6.88,0,13.759-11.041,20.639-29.889s13.759-45.503,20.639-72.158c6.88-26.655,13.759-53.31,20.639-72.158
	s13.759-29.889,20.639-29.889s13.759,11.041,20.639,29.889c6.88,18.848,13.759,45.503,20.639,72.158
	c6.88,26.655,13.759,53.31,20.639,72.158c6.88,18.848,13.759,29.889,20.639,29.889c6.88,0,13.759-11.041,20.639-29.889
	c6.88-18.848,13.759-45.503,20.639-72.158c6.88-26.655,13.759-53.31,20.639-72.158c6.88-18.848,13.759-29.889,20.639-29.889
	c6.88,0,13.759,11.041,20.639,29.889c6.88,18.848,13.759,45.503,20.639,72.158c6.88,26.655,13.759,53.31,20.639,72.158
	c6.88,18.848,13.759,29.889,20.639,29.889"/>
<path fill="none" stroke="#32cd32" stroke-width="40" stroke-miterlimit="10" d="M283.465,141.732
	c8.564,0.018,17.131-0.012,25.695,0.14c9.28,0.165,18.55,0.422,27.82,0.872c8.778,0.426,17.534,1.142,26.279,2.002
	c8.766,0.862,17.491,2.15,26.168,3.652c8.355,1.446,16.711,3.25,24.87,5.566c8.389,2.381,16.736,5.017,24.767,8.44
	c8.211,3.499,16.07,7.513,23.663,12.206c7.255,4.484,14.129,9.949,20.097,16.039c6.055,6.179,11.631,13.058,15.77,20.689
	c4.203,7.748,7.513,15.808,9.714,24.355c2.24,8.701,3.346,17.563,3.984,26.511c0.672,9.414,0.376,18.916,0.433,28.347
	c0.048,7.9-0.292,15.892-1.289,23.732c-1.105,8.696-2.72,17.466-5.776,25.715c-3.115,8.41-7.071,16.237-12.167,23.624
	c-4.805,6.966-10.762,13.283-17.23,18.725c-6.779,5.704-14.106,10.622-21.877,14.871c-7.545,4.126-15.495,7.691-23.614,10.534
	c-8.435,2.954-16.96,5.433-25.641,7.551c-8.276,2.019-16.728,3.584-25.162,4.777c-9.042,1.28-18.095,2.295-27.194,3.069
	c-8.792,0.748-17.61,1.161-26.426,1.492c-8.957,0.336-17.921,0.431-26.883,0.515c-8.833,0.082-17.669,0.038-26.502,0.02
	c-8.335-0.017-16.672-0.087-25.005-0.314c-8.839-0.241-17.688-0.531-26.509-1.169c-8.992-0.65-17.961-1.442-26.907-2.574
	c-8.807-1.115-17.56-2.574-26.253-4.376c-8.325-1.725-16.62-3.822-24.703-6.466c-8.459-2.767-16.74-5.948-24.758-9.823
	c-7.846-3.792-15.349-8.272-22.346-13.47c-6.84-5.082-13.352-10.962-18.681-17.635c-5.595-7.008-10.185-14.452-13.888-22.622
	c-3.602-7.947-5.737-16.463-7.353-25.004c-1.485-7.844-2.183-16.078-2.232-24.057c-0.059-9.69-0.238-19.382-0.003-29.07
	c0.21-8.669,1.091-17.347,2.703-25.866c1.643-8.679,4.39-17.022,8.032-25.059c3.519-7.764,8.383-15.008,13.916-21.47
	c5.615-6.557,12.104-12.557,19.189-17.506c7.251-5.065,14.816-9.394,22.776-13.241c7.647-3.696,15.749-6.715,23.868-9.191
	c8.671-2.645,17.425-4.822,26.3-6.661c8.652-1.793,17.413-3.029,26.174-4.138c8.349-1.057,16.769-1.784,25.169-2.289
	c9.199-0.553,18.397-0.913,27.609-1.164c8.659-0.236,17.326-0.245,25.988-0.263C278.525,141.742,280.995,141.737,283.465,141.732"/>
</svg>
